<svg width="296" height="87" viewBox="0 0 296 87" fill="none" xmlns="http://www.w3.org/2000/svg">
<path d="M0.495 25.16H31.46V33.96H0.495V25.16ZM10.45 36.16H21.45V63H10.45V36.16ZM47.578 36.545C48.348 35.8117 49.2463 35.2983 50.273 35.005C51.3363 34.675 52.638 34.51 54.178 34.51V43.695C52.528 43.695 51.1713 43.805 50.108 44.025C49.0813 44.245 48.238 44.63 47.578 45.18V36.545ZM35.093 34.95H45.268V63H35.093V34.95ZM66.3223 63.385C63.0223 63.385 60.8039 62.3767 59.6673 60.36C59.1539 59.48 58.8056 58.4167 58.6223 57.17C58.4389 55.8867 58.3473 54.3283 58.3473 52.495V34.95H68.5223V48.205C68.5223 50.1483 68.5406 51.4317 68.5773 52.055C68.6506 52.9717 68.7606 53.6317 68.9073 54.035C69.0539 54.4383 69.2923 54.695 69.6223 54.805C69.9523 54.8783 70.5389 54.915 71.3823 54.915H71.9323V61.79C70.5023 62.8533 68.6323 63.385 66.3223 63.385ZM74.2423 34.95H84.4173V63H74.2423V34.95ZM108.889 42.485C107.972 42.3383 106.652 42.265 104.929 42.265C103.792 42.265 102.985 42.3383 102.509 42.485V34.51C105.112 34.5467 107.807 34.8767 110.594 35.5V42.65L108.889 42.485ZM102.124 63.44C99.2638 63.44 96.9905 63.0917 95.3038 62.395C93.6172 61.6983 92.3705 60.6717 91.5638 59.315C90.8305 58.1417 90.3538 56.7667 90.1338 55.19C89.9505 53.6133 89.8588 51.56 89.8588 49.03C89.8588 46.72 89.9505 44.795 90.1338 43.255C90.3172 41.715 90.7022 40.3583 91.2888 39.185C91.9855 37.8283 93.0305 36.7833 94.4238 36.05C95.8538 35.28 97.7788 34.8033 100.199 34.62V48.975C100.199 50.5883 100.235 51.7983 100.309 52.605C100.419 53.4117 100.62 54.035 100.914 54.475C101.244 54.915 101.702 55.2267 102.289 55.41C102.912 55.5933 103.792 55.685 104.929 55.685C106.872 55.685 108.21 55.63 108.944 55.52L110.814 55.3V62.45C108.1 63.11 105.204 63.44 102.124 63.44ZM116.25 22.135H126.425V63H116.25V22.135ZM128.735 54.97V43.31L133.52 34.95H144.245L135.995 48.26L144.41 63H133.3L128.735 54.97ZM175.207 24.775C175.5 24.7383 175.958 24.72 176.582 24.72H178.012C180.468 24.72 182.87 24.9033 185.217 25.27C186.427 25.4533 187.362 25.6367 188.022 25.82V33.685C187.472 33.6483 186.555 33.5567 185.272 33.41C183.548 33.2267 182.045 33.135 180.762 33.135C179.332 33.135 178.177 33.19 177.297 33.3C176.453 33.3733 175.757 33.52 175.207 33.74V24.775ZM178.012 63.44C174.345 63.44 171.43 63.1283 169.267 62.505C167.14 61.845 165.527 60.7633 164.427 59.26C163.363 57.83 162.63 55.9417 162.227 53.595C161.86 51.2117 161.677 48.04 161.677 44.08C161.677 40.5967 161.805 37.7733 162.062 35.61C162.355 33.4467 162.868 31.6317 163.602 30.165C164.372 28.6617 165.49 27.5067 166.957 26.7C168.46 25.8567 170.44 25.2883 172.897 24.995V44.08C172.897 46.1333 172.933 48.1133 173.007 50.02C173.08 51.4867 173.355 52.5867 173.832 53.32C174.345 54.0533 175.133 54.5117 176.197 54.695C177.223 54.915 178.745 55.025 180.762 55.025C182.852 55.025 184.63 54.9333 186.097 54.75C186.683 54.7133 187.398 54.6217 188.242 54.475V62.45C186.445 62.8533 184.41 63.1283 182.137 63.275C180.89 63.385 179.515 63.44 178.012 63.44ZM201.462 62.835C198.162 62.835 195.943 61.8267 194.807 59.81C194.293 58.93 193.945 57.8667 193.762 56.62C193.578 55.3367 193.487 53.7783 193.487 51.945V34.95H203.662V47.655C203.662 49.5983 203.68 50.8817 203.717 51.505C203.79 52.4583 203.9 53.1183 204.047 53.485C204.193 53.8883 204.432 54.145 204.762 54.255C205.092 54.3283 205.678 54.365 206.522 54.365H207.072V61.185C205.605 62.285 203.735 62.835 201.462 62.835ZM205.257 74.33C203.35 74.33 201.113 74.22 198.547 74L195.357 73.67V66.575H202.727C204.047 66.575 205.33 66.5383 206.577 66.465C207.457 66.3917 208.098 66.2083 208.502 65.915C208.942 65.6583 209.198 65.2 209.272 64.54C209.345 63.66 209.382 62.725 209.382 61.735V34.95H219.557V59.92C219.557 62.8533 219.428 65.1267 219.172 66.74C218.952 68.3533 218.42 69.6917 217.577 70.755C216.623 71.965 215.175 72.8633 213.232 73.45C211.288 74.0367 208.63 74.33 205.257 74.33ZM244.026 42.485C243.109 42.3383 241.789 42.265 240.066 42.265C238.929 42.265 238.122 42.3383 237.646 42.485V34.51C240.249 34.5467 242.944 34.8767 245.731 35.5V42.65L244.026 42.485ZM237.261 63.44C234.401 63.44 232.127 63.0917 230.441 62.395C228.754 61.6983 227.507 60.6717 226.701 59.315C225.967 58.1417 225.491 56.7667 225.271 55.19C225.087 53.6133 224.996 51.56 224.996 49.03C224.996 46.72 225.087 44.795 225.271 43.255C225.454 41.715 225.839 40.3583 226.426 39.185C227.122 37.8283 228.167 36.7833 229.561 36.05C230.991 35.28 232.916 34.8033 235.336 34.62V48.975C235.336 50.5883 235.372 51.7983 235.446 52.605C235.556 53.4117 235.757 54.035 236.051 54.475C236.381 54.915 236.839 55.2267 237.426 55.41C238.049 55.5933 238.929 55.685 240.066 55.685C242.009 55.685 243.347 55.63 244.081 55.52L245.951 55.3V62.45C243.237 63.11 240.341 63.44 237.261 63.44ZM251.387 22.135H261.562V63H251.387V22.135ZM279.428 46.225H283.278C283.278 44.1717 283.076 42.8517 282.673 42.265C282.453 41.935 282.159 41.7333 281.793 41.66C281.426 41.55 280.894 41.495 280.198 41.495H279.428V34.51H280.198C283.351 34.51 285.771 34.7667 287.458 35.28C289.181 35.7933 290.446 36.6367 291.253 37.81C291.986 38.8367 292.426 40.1567 292.573 41.77C292.756 43.3833 292.848 45.8033 292.848 49.03V51.23H279.428V46.225ZM281.298 63.44C277.924 63.44 275.266 63.165 273.323 62.615C271.416 62.0283 269.986 61.1117 269.033 59.865C268.189 58.765 267.639 57.4083 267.383 55.795C267.126 54.145 266.998 51.89 266.998 49.03C266.998 46.39 267.089 44.3 267.273 42.76C267.456 41.1833 267.841 39.845 268.428 38.745C269.088 37.535 270.096 36.6 271.453 35.94C272.846 35.2433 274.734 34.8033 277.118 34.62V51.23C277.118 52.4767 277.173 53.375 277.283 53.925C277.393 54.4383 277.649 54.8233 278.053 55.08C278.493 55.3733 279.171 55.5383 280.088 55.575C281.261 55.6483 282.508 55.685 283.828 55.685C286.174 55.685 287.879 55.63 288.943 55.52L291.748 55.3V62.395C290.281 62.835 288.264 63.1283 285.698 63.275C284.451 63.385 282.984 63.44 281.298 63.44Z" fill="url(#paint0_linear_84_1564)"/>
<defs>
<linearGradient id="paint0_linear_84_1564" x1="148.866" y1="36.3418" x2="148.866" y2="68.8291" gradientUnits="userSpaceOnUse">
<stop stop-color="#F68B1E"/>
<stop offset="1" stop-color="#1FB27C"/>
</linearGradient>
</defs>
</svg>
