<svg width="100" height="100" viewBox="0 0 100 100" fill="none" xmlns="http://www.w3.org/2000/svg">
<path d="M45.3047 41.9766C45.3047 41.9766 44.8906 40.7812 43.9922 40.3672C43.1016 39.9531 41.6094 39.8906 41.6094 39.8906L39.1094 69.4609L41.1406 84.0547C41.1406 84.0547 41.7344 85.7812 43.2891 85.8437C44.8359 85.9062 57.7188 85.8437 58.8516 85.8437C59.9844 85.8437 60.3438 84.3516 60.3984 83.6953C60.4609 83.0391 60.4375 81.9375 60.4375 81.9375L65.9375 81.9141C65.9375 81.9141 66.2578 84.2578 65.7266 85.7344C65.2656 87.0156 64.8516 88.0391 64.8594 88.4766C64.8672 89.1016 65.6953 89.7266 66.6484 89.6719C67.6016 89.6094 69.0313 88.3594 69.9844 87.5859C70.9375 86.8125 86.2188 86.9922 86.2188 86.9922C86.2188 86.9922 86.9531 88.3516 87.7734 89.1719C88.2656 89.6641 89.0625 89.9062 89.7813 89.9062C90.5 89.9062 91.3906 88.9531 91.2109 88.2969C91.0313 87.6406 90.2188 86.1328 90.0781 84.6641C90.0156 84 90.0938 82.1484 90.4219 81.8437C90.5 81.7734 91.6875 81.8125 92.7969 81.6953C94.6875 81.5 96.5781 79.0547 96.8125 77.1484C97.0547 75.2422 96.875 69.2187 96.875 69.2187L45.3047 41.9766Z" fill="#B3AFAF"/>
<path d="M40.6406 75.0859H96.9141C96.9141 75.0859 97.0469 76.6641 96.7734 77.6797C96.6285 78.2188 96.3819 78.7253 96.0469 79.1719L40.9609 79.1641L40.6406 75.0859Z" fill="#9A9A9A"/>
<path d="M20.8984 72.5313L8.98438 76.2188L3.03125 74.1641C3.03125 74.1641 3.24219 62.961 3.3125 61.8282C3.38281 60.6953 3.66406 59.7032 4.73437 58.9922C5.79687 58.2813 8.77344 56.5078 8.77344 56.5078C8.77344 56.5078 17.9219 41.8282 18.7031 40.7657C19.4844 39.7032 20.4453 38.4063 22.7188 38.1953C24.9922 37.9844 39.0234 38.1563 40.2969 38.2266C41.5703 38.2969 42.5234 38.875 42.5234 41.6406C42.5234 44.4063 42.4531 65.5157 42.3828 66.5782C42.3125 67.6407 36.9922 71.5391 36.9922 71.5391L20.8984 72.5313Z" fill="#E0E0E0"/>
<path d="M38.2422 85.9609C38.2422 85.9609 39.3828 85.9922 40.1719 85.8828C40.9609 85.7734 42.1484 84.9844 42.2031 83.1172C42.2344 82.0078 42.3828 66.5781 42.3828 66.5781L21.1328 66.625L14.2578 74.1484L3.03125 74.1641C3.03125 74.1641 2.98437 78.5781 3.01562 79.7578C3.04687 80.9453 9.15625 83.5312 9.15625 83.5312L38.2422 85.9609Z" fill="#DC0D28"/>
<path d="M3.0161 79.7578H15.813C15.813 79.7578 18.5552 74.289 26.438 74.3828C38.0161 74.5234 38.2505 85.9531 38.2505 85.9531H8.09423C6.39892 85.9531 3.97704 85.3906 3.35985 83.25C2.83642 81.4531 3.0161 79.7578 3.0161 79.7578Z" fill="#B10A1B"/>
<path d="M10.8513 59.5781C10.8513 59.5781 10.8513 58.3047 10.0154 58.2578C9.17945 58.2109 8.25758 58.7344 7.42164 59.4453C6.53883 60.1953 6.10133 60.875 5.92946 61.4687C5.66383 62.3515 5.88258 63.1406 7.24977 63.1797C8.92164 63.2344 35.4685 63.0625 36.6951 62.9609C38.2341 62.8281 39.156 62.1719 39.1091 61.0234C39.0701 59.9219 38.2732 59.5703 34.9763 59.5312C31.6795 59.4922 10.8513 59.5781 10.8513 59.5781Z" fill="white"/>
<path d="M3.28125 63.3047C3.28125 63.3047 11.2578 63.0547 11.4297 63.25C11.6719 63.5391 11.7188 67.3047 11.6328 67.875C11.5469 68.4453 10.7969 68.8438 9.875 68.8828C8.95312 68.9219 3.14844 69.0156 3.14844 69.0156L3.28125 63.3047Z" fill="#FDEDC5"/>
<path d="M36.1252 58.2109C37.3596 58.2109 37.7971 56.8047 37.7971 55.8359V43.5781C37.7971 42.6094 37.1799 42.0859 35.2502 41.9922C33.3127 41.9063 24.4846 42.0078 23.5158 42.0391C22.0236 42.0859 21.008 42.7422 19.6486 44.6328C18.7658 45.8594 13.3205 54.875 12.883 55.6172C12.4455 56.3672 11.9143 58.3438 14.2033 58.3828C16.5705 58.4297 36.1252 58.2109 36.1252 58.2109Z" fill="#5F6369"/>
<path d="M15.3359 56.1485H35.0234C35.4219 56.1485 35.7734 55.711 35.7734 55.1797C35.7734 54.6485 35.8047 46.3516 35.8203 45.8594C35.8672 44.5 34.8516 44.1875 33.9766 44.2344C33.0938 44.2813 24.2031 44.25 23.6797 44.2735C22.6719 44.3203 21.6719 45.6719 20.7969 47.0078C19.7422 48.625 15.3359 56.1485 15.3359 56.1485Z" fill="#AFE3FB"/>
<path d="M15.6407 57.6016C15.7267 59.5781 18.8907 61.2031 19.6876 61.25C20.4767 61.2969 20.961 59.7578 21.047 57.6875C21.1329 55.6172 20.3048 53.9062 19.6407 53.9062C18.9845 53.9062 15.5704 55.9297 15.6407 57.6016Z" fill="#5F6369"/>
<path d="M16.3285 87.2031C16.391 91.1094 19.5004 96.7266 26.266 96.7656C33.0316 96.8047 36.5473 91.6172 36.3285 86.2969C36.1098 80.8906 31.9144 77.0703 25.8754 77.2422C20.2269 77.4141 16.2426 81.8047 16.3285 87.2031Z" fill="#4E433D"/>
<path d="M21.1636 86.9766C21.1949 89.0313 22.8277 92 26.3902 92.0235C29.9527 92.0469 31.6714 89.4688 31.5621 86.6641C31.4449 83.8125 29.1714 81.6875 26.1871 81.7344C23.2183 81.7735 21.1246 84.125 21.1636 86.9766Z" fill="#C8C8C8"/>
<path d="M67.891 87.2031C67.9535 91.1094 71.0629 96.7266 77.8285 96.7656C84.5941 96.8047 88.1098 91.6172 87.891 86.2969C87.6723 80.8906 83.477 77.0703 77.4379 77.2422C71.7895 77.4141 67.8051 81.8047 67.891 87.2031Z" fill="#4E433D"/>
<path d="M72.7261 86.9766C72.7574 89.0313 74.3902 92 77.9527 92.0235C81.5074 92.0469 83.2339 89.4688 83.1246 86.6641C83.0074 83.8125 80.7339 81.6875 77.7496 81.7344C74.7808 81.7735 72.6871 84.125 72.7261 86.9766Z" fill="#C8C8C8"/>
<path d="M44.4297 22.3594C44.4297 20.3125 45.3281 19.4922 46.9687 19.5781C48.6094 19.6562 93.5703 19.4141 95.0391 19.4141C96.5078 19.4141 97.0859 20.9687 97.0859 21.8672C97.0859 22.7656 96.8047 68.3437 96.8672 69.2266C96.9219 70.1094 96.6797 71.3359 95.125 71.5C93.5703 71.6641 47.4609 71.5781 46.4766 71.5C45.4922 71.4219 44.2656 70.6016 44.2656 69.4531C44.2656 68.2969 44.4297 23.4219 44.4297 22.3594Z" fill="#D16E1D"/>
<path d="M48.5234 24.1562C48.5234 25.2188 48.1953 65.0234 48.1953 66.0078C48.1953 66.9922 48.6875 68.1406 50 68.1406C51.3125 68.1406 91.6016 68.2188 92.4219 68.1406C93.2422 68.0625 93.7344 67.5703 93.8125 66.2578C93.8906 64.9453 93.8906 24.9844 93.8906 23.6719C93.8906 22.3594 92.5781 22.2812 91.1875 22.2812C89.7969 22.2812 50.4063 22.3594 49.8281 22.4453C49.2578 22.5156 48.5234 23.0937 48.5234 24.1562Z" fill="#F5B03A"/>
<path d="M58.1641 69.5312C58.1173 55.1172 58.0157 21.5 58.1798 20.5859L59.336 20.7969L60.5001 20.9375C60.3907 22.2266 60.4454 50.6953 60.5079 69.5234L58.1641 69.5312Z" fill="#D16E1D"/>
<path d="M70.1172 20.7188H72.4609V69.6094H70.1172V20.7188Z" fill="#D16E1D"/>
<path d="M81.9453 20.7578H84.2891V69.4062H81.9453V20.7578Z" fill="#D16E1D"/>
</svg>
