<svg width="16" height="15" viewBox="0 0 16 15" fill="none" xmlns="http://www.w3.org/2000/svg">
<path d="M11.3337 8.49583C11.4764 8.09118 11.5488 7.66243 11.5473 7.23037C11.5473 6.27106 11.1882 5.35104 10.5489 4.6727C9.90967 3.99437 9.04264 3.61328 8.13859 3.61328C7.73644 3.61378 7.33762 3.69056 6.96094 3.84001L7.76095 4.71528C7.88256 4.69464 8.0055 4.68406 8.12865 4.68364C8.76788 4.68223 9.38168 4.94925 9.836 5.42641C10.2903 5.90357 10.5483 6.55209 10.5535 7.23037C10.5531 7.36106 10.5431 7.49151 10.5237 7.62055L11.3337 8.49583Z" fill="#858585"/>
<path d="M15.8553 6.97976C14.1808 3.69485 11.2441 1.70703 7.99438 1.70703C7.10958 1.70924 6.23072 1.86051 5.39062 2.15521L6.19063 3.00939C6.77988 2.8478 7.38578 2.76456 7.99438 2.76158C10.7919 2.76158 13.3361 4.41721 14.8516 7.20648C14.2957 8.24131 13.5586 9.15401 12.6802 9.89558L13.3858 10.6443C14.4024 9.77396 15.2468 8.69877 15.8703 7.48067L15.9994 7.22758L15.8553 6.97976Z" fill="#858585"/>
<path d="M1.23728 0.785636L3.45346 3.13727C2.05265 4.09433 0.907788 5.41813 0.129194 6.98109L0 7.22891L0.129194 7.482C1.80375 10.7669 4.74043 12.7547 7.99016 12.7547C9.25857 12.7545 10.5105 12.4498 11.6523 11.8636L14.1368 14.5L15.0064 13.7091L2.08698 0L1.23728 0.785636ZM6.08206 5.92655L9.38645 9.43291C9.01309 9.67814 8.58328 9.80949 8.14419 9.81254C7.82515 9.81255 7.50925 9.74561 7.21468 9.61558C6.92011 9.48555 6.65268 9.29499 6.42777 9.05486C6.20287 8.81474 6.02493 8.5298 5.9042 8.21643C5.78347 7.90306 5.72233 7.56745 5.72429 7.22891C5.72989 6.76837 5.85357 6.31814 6.08206 5.92655ZM5.36155 5.162C4.89667 5.85768 4.67878 6.70548 4.74645 7.55528C4.81412 8.40509 5.163 9.20207 5.7313 9.80511C6.29961 10.4081 7.05068 10.7783 7.85153 10.8502C8.65238 10.922 9.45134 10.6908 10.107 10.1975L10.902 11.0411C9.98162 11.4586 8.99108 11.6738 7.99016 11.6738C5.19261 11.6738 2.64848 10.0182 1.13293 7.22891C1.86025 5.86233 2.90772 4.71814 4.17396 3.90709L5.36155 5.162Z" fill="#858585"/>
</svg>
