<svg width="17" height="12" viewBox="0 0 17 12" fill="none" xmlns="http://www.w3.org/2000/svg">
<path d="M15.7226 5.25857C16.0925 5.70143 16.0925 6.29929 15.7226 6.74143C14.5578 8.13357 11.763 11 8.50012 11C5.23723 11 2.44248 8.13357 1.27761 6.74143C1.09767 6.52938 1 6.26851 1 6C1 5.73149 1.09767 5.47062 1.27761 5.25857C2.44248 3.86643 5.23723 1 8.50012 1C11.763 1 14.5578 3.86643 15.7226 5.25857V5.25857Z" stroke="#858585" stroke-linecap="round" stroke-linejoin="round"/>
<path d="M8.50082 8.14118C9.79354 8.14118 10.8415 7.18179 10.8415 5.99833C10.8415 4.81486 9.79354 3.85547 8.50082 3.85547C7.20811 3.85547 6.16016 4.81486 6.16016 5.99833C6.16016 7.18179 7.20811 8.14118 8.50082 8.14118Z" stroke="#858585" stroke-linecap="round" stroke-linejoin="round"/>
</svg>
