<svg width="35" height="35" viewBox="0 0 35 35" fill="none" xmlns="http://www.w3.org/2000/svg">
<circle cx="17.5" cy="17.5" r="17.5" fill="#FFE1C2"/>
<path d="M25.6667 14H23V10.6667C23 10.4899 22.9298 10.3203 22.8047 10.1953C22.6797 10.0702 22.5101 10 22.3333 10H7.66667C7.48986 10 7.32029 10.0702 7.19526 10.1953C7.07024 10.3203 7 10.4899 7 10.6667V22.6667C7 22.8435 7.07024 23.013 7.19526 23.1381C7.32029 23.2631 7.48986 23.3333 7.66667 23.3333H8.33333V11.3333H21.6667V19.1333C22.0066 19.0466 22.3559 19.0019 22.7067 19H23V15.3333H25.6667C26.0203 15.3333 26.3594 15.4738 26.6095 15.7239C26.8595 15.9739 27 16.313 27 16.6667V17.3333H24.3333V18.6667H27V22H25.4C25.1661 21.4567 24.7782 20.9939 24.2841 20.6687C23.79 20.3434 23.2115 20.1701 22.62 20.1701C22.0285 20.1701 21.45 20.3434 20.9559 20.6687C20.4618 20.9939 20.0739 21.4567 19.84 22H15.2867C15.0572 21.4527 14.6706 20.9858 14.1758 20.6583C13.6809 20.3308 13.1001 20.1574 12.5067 20.16C11.9429 20.1724 11.3947 20.3479 10.9284 20.6651C10.4622 20.9824 10.0978 21.4279 9.87923 21.9477C9.66069 22.4676 9.59737 23.0397 9.69693 23.5948C9.79649 24.1499 10.0547 24.6643 10.4403 25.0758C10.8259 25.4873 11.3224 25.7784 11.8698 25.9138C12.4173 26.0493 12.9922 26.0233 13.5252 25.839C14.0582 25.6547 14.5265 25.32 14.8733 24.8754C15.2202 24.4307 15.4309 23.8951 15.48 23.3333H19.6667C19.7514 24.0625 20.1011 24.7351 20.6493 25.2233C21.1975 25.7115 21.9059 25.9812 22.64 25.9812C23.3741 25.9812 24.0825 25.7115 24.6307 25.2233C25.1789 24.7351 25.5286 24.0625 25.6133 23.3333H27.6667C27.8435 23.3333 28.013 23.2631 28.1381 23.1381C28.2631 23.013 28.3333 22.8435 28.3333 22.6667V16.6667C28.3333 15.9594 28.0524 15.2811 27.5523 14.781C27.0522 14.281 26.3739 14 25.6667 14ZM12.5067 24.6667C12.2901 24.6807 12.073 24.6502 11.8686 24.577C11.6643 24.5038 11.4772 24.3895 11.3189 24.241C11.1605 24.0926 11.0343 23.9133 10.948 23.7142C10.8617 23.5151 10.8172 23.3004 10.8172 23.0833C10.8172 22.8663 10.8617 22.6516 10.948 22.4525C11.0343 22.2533 11.1605 22.074 11.3189 21.9256C11.4772 21.7772 11.6643 21.6629 11.8686 21.5897C12.073 21.5165 12.2901 21.4859 12.5067 21.5C12.7232 21.4859 12.9404 21.5165 13.1447 21.5897C13.349 21.6629 13.5361 21.7772 13.6945 21.9256C13.8528 22.074 13.979 22.2533 14.0653 22.4525C14.1516 22.6516 14.1961 22.8663 14.1961 23.0833C14.1961 23.3004 14.1516 23.5151 14.0653 23.7142C13.979 23.9133 13.8528 24.0926 13.6945 24.241C13.5361 24.3895 13.349 24.5038 13.1447 24.577C12.9404 24.6502 12.7232 24.6807 12.5067 24.6667ZM22.62 24.6667C22.3098 24.651 22.011 24.5446 21.7607 24.3608C21.5104 24.1769 21.3195 23.9236 21.2118 23.6322C21.1041 23.3409 21.0843 23.0244 21.1548 22.7219C21.2253 22.4194 21.383 22.1442 21.6084 21.9305C21.8338 21.7168 22.117 21.574 22.4228 21.5198C22.7286 21.4655 23.0437 21.5022 23.3288 21.6253C23.614 21.7484 23.8568 21.9525 24.027 22.2122C24.1973 22.472 24.2876 22.7761 24.2867 23.0867C24.2745 23.517 24.0922 23.9249 23.7798 24.221C23.4674 24.5172 23.0503 24.6774 22.62 24.6667Z" fill="#D1A33B"/>
</svg>
